<svg id="SvgjsSvg1000" xmlns="http://www.w3.org/2000/svg" version="1.1" xmlns:xlink="http://www.w3.org/1999/xlink" xmlns:svgjs="http://svgjs.com/svgjs" width="29" height="28" viewBox="0 0 29 28"><title>Like</title><desc>Created with Avocode.</desc><defs id="SvgjsDefs1001"></defs><path id="SvgjsPath1007" d="M731.556 124.968C731.556 124.343 731.038 123.82600000000001 730.413 123.82600000000001L725.271 123.82600000000001C724.6469999999999 123.82600000000001 724.1289999999999 124.343 724.1289999999999 124.968L724.1289999999999 136.394C724.1289999999999 137.019 724.6469999999999 137.536 725.271 137.536L730.413 137.536C731.038 137.536 731.556 137.019 731.556 136.394ZM728.699 134.108C728.699 134.751 728.1809999999999 135.251 727.5569999999999 135.251C726.9139999999999 135.251 726.4139999999999 134.751 726.4139999999999 134.108C726.4139999999999 133.484 726.9139999999999 132.966 727.5569999999999 132.966C728.1809999999999 132.966 728.699 133.484 728.699 134.108ZM751.711 127.628C751.908 128.199 751.979 128.735 751.979 128.985C752.015 129.87800000000001 751.7470000000001 130.717 751.212 131.431C751.408 132.091 751.408 132.805 751.212 133.519C751.033 134.18 750.694 134.769 750.2479999999999 135.198C750.3549999999999 136.537 750.0509999999999 137.625 749.3729999999999 138.429C748.6049999999999 139.339 747.4269999999999 139.804 745.8559999999999 139.822C745.7839999999999 139.822 745.5339999999999 139.822 745.2129999999999 139.822L743.5529999999999 139.822C740.9999999999999 139.822 738.5899999999999 138.982 736.6619999999999 138.322C735.5369999999999 137.929 734.4659999999999 137.554 733.8409999999999 137.536C733.2339999999999 137.519 732.6979999999999 137.019 732.6979999999999 136.394L732.6979999999999 124.95C732.6979999999999 124.361 733.1979999999999 123.861 733.7869999999999 123.808C734.4479999999999 123.754 736.1619999999999 121.629 736.9469999999999 120.59400000000001C737.5899999999999 119.77300000000001 738.1969999999999 119.00500000000001 738.7499999999999 118.45200000000001C739.4469999999999 117.75500000000001 739.6429999999999 116.68400000000001 739.8569999999999 115.64900000000002C740.0539999999999 114.59600000000002 740.2679999999998 113.48900000000002 741.0349999999999 112.73900000000002C741.2499999999999 112.52400000000002 741.5349999999999 112.40000000000002 741.8389999999998 112.40000000000002C745.8379999999999 112.40000000000002 745.8379999999999 115.59500000000001 745.8379999999999 116.97000000000003C745.8379999999999 118.43400000000003 745.3199999999998 119.46900000000002 744.8379999999999 120.39800000000002C744.6419999999998 120.79100000000003 744.4629999999999 120.96900000000002 744.3199999999998 121.54000000000002L749.2659999999998 121.54000000000002C751.1219999999998 121.54000000000002 752.6929999999999 123.11100000000002 752.6929999999999 124.96800000000002C752.6929999999999 125.91400000000002 752.3179999999999 126.93200000000002 751.7109999999999 127.62800000000001Z " fill="#27021f" fill-opacity="1" transform="matrix(1,0,0,1,-724,-112)"></path></svg>